<svg width="184" height="48" viewBox="0 0 184 48" fill="none" xmlns="http://www.w3.org/2000/svg">
<rect x="0.0234375" width="48" height="48" rx="24" fill="url(#paint0_radial_927_620)"/>
<g filter="url(#filter0_d_927_620)">
<path d="M25.5581 23.253L25.5579 23.2528C25.1128 22.8085 24.5738 22.5844 23.9484 22.5844C23.3231 22.5844 22.7844 22.8085 22.3399 23.2529C21.8948 23.698 21.6703 24.2371 21.6703 24.8625C21.6703 25.4879 21.8949 26.0267 22.34 26.4711C22.7844 26.9161 23.3231 27.1406 23.9484 27.1406C24.5739 27.1406 25.1129 26.9161 25.558 26.471C26.0024 26.0266 26.2266 25.4879 26.2266 24.8625C26.2266 24.2371 26.0025 23.6981 25.5581 23.253ZM28.6664 29.3413L28.6663 29.3413C27.6396 30.9339 26.0686 32.7082 23.9484 34.6642C21.8283 32.7082 20.2572 30.9339 19.2305 29.3413L19.2305 29.3413C18.187 27.7233 17.6766 26.3031 17.6766 25.0763C17.6766 23.1675 18.2835 21.6148 19.4918 20.4059C19.4918 20.4059 19.4918 20.4059 19.4918 20.4059C19.4918 20.4058 19.4918 20.4058 19.4918 20.4058C20.703 19.1954 22.1855 18.5906 23.9484 18.5906C25.7114 18.5906 27.1936 19.1954 28.404 20.4059C29.613 21.6148 30.2203 23.1675 30.2203 25.0763C30.2203 26.3031 29.7099 27.7233 28.6664 29.3413ZM23.8573 37.7946L23.9484 37.8721L24.0396 37.7946C26.9128 35.3497 29.0652 33.0735 30.4913 30.9659L30.4913 30.9658C31.9165 28.8593 32.6391 26.8951 32.6391 25.0763C32.6391 22.3713 31.7673 20.2029 30.0149 18.5871C28.2713 16.9787 26.2472 16.1719 23.9484 16.1719C21.6496 16.1719 19.6256 16.9787 17.882 18.5871C16.1296 20.2029 15.2578 22.3713 15.2578 25.0763C15.2578 26.8951 15.9808 28.8593 17.4066 30.9658C18.8321 33.0735 20.984 35.3497 23.8573 37.7946Z" fill="#DBDBDB" stroke="#DBDBDB" stroke-width="0.28125"/>
<mask id="path-3-inside-1_927_620" fill="white">
<path d="M18.2109 15.1875C18.2109 12.5987 20.3096 10.5 22.8984 10.5H24.9609C27.5498 10.5 29.6484 12.5987 29.6484 15.1875V19.3125H18.2109V15.1875Z"/>
</mask>
<path d="M16.3359 15.1875C16.3359 11.5631 19.2741 8.625 22.8984 8.625H24.9609C28.5853 8.625 31.5234 11.5631 31.5234 15.1875H27.7734C27.7734 13.6342 26.5142 12.375 24.9609 12.375H22.8984C21.3451 12.375 20.0859 13.6342 20.0859 15.1875H16.3359ZM29.6484 19.3125H18.2109H29.6484ZM16.3359 19.3125V15.1875C16.3359 11.5631 19.2741 8.625 22.8984 8.625V12.375C21.3451 12.375 20.0859 13.6342 20.0859 15.1875V19.3125H16.3359ZM24.9609 8.625C28.5853 8.625 31.5234 11.5631 31.5234 15.1875V19.3125H27.7734V15.1875C27.7734 13.6342 26.5142 12.375 24.9609 12.375V8.625Z" fill="#DBDBDB" mask="url(#path-3-inside-1_927_620)"/>
</g>
<path d="M62.5446 21.464V27.896C62.5446 28.344 62.6486 28.672 62.8566 28.88C63.0806 29.072 63.4486 29.168 63.9606 29.168H65.5206V32H63.4086C60.5766 32 59.1606 30.624 59.1606 27.872V21.464H57.5766V18.704H59.1606V15.416H62.5446V18.704H65.5206V21.464H62.5446ZM71.2973 20.768C71.7293 20.064 72.2893 19.512 72.9773 19.112C73.6813 18.712 74.4813 18.512 75.3773 18.512V22.04H74.4893C73.4333 22.04 72.6333 22.288 72.0893 22.784C71.5613 23.28 71.2973 24.144 71.2973 25.376V32H67.9373V18.704H71.2973V20.768ZM76.7764 25.304C76.7764 23.96 77.0404 22.768 77.5684 21.728C78.1124 20.688 78.8404 19.888 79.7524 19.328C80.6804 18.768 81.7124 18.488 82.8484 18.488C83.8404 18.488 84.7044 18.688 85.4404 19.088C86.1924 19.488 86.7924 19.992 87.2404 20.6V18.704H90.6244V32H87.2404V30.056C86.8084 30.68 86.2084 31.2 85.4404 31.616C84.6884 32.016 83.8164 32.216 82.8244 32.216C81.7044 32.216 80.6804 31.928 79.7524 31.352C78.8404 30.776 78.1124 29.968 77.5684 28.928C77.0404 27.872 76.7764 26.664 76.7764 25.304ZM87.2404 25.352C87.2404 24.536 87.0804 23.84 86.7604 23.264C86.4404 22.672 86.0084 22.224 85.4644 21.92C84.9204 21.6 84.3364 21.44 83.7124 21.44C83.0884 21.44 82.5124 21.592 81.9844 21.896C81.4564 22.2 81.0244 22.648 80.6884 23.24C80.3684 23.816 80.2084 24.504 80.2084 25.304C80.2084 26.104 80.3684 26.808 80.6884 27.416C81.0244 28.008 81.4564 28.464 81.9844 28.784C82.5284 29.104 83.1044 29.264 83.7124 29.264C84.3364 29.264 84.9204 29.112 85.4644 28.808C86.0084 28.488 86.4404 28.04 86.7604 27.464C87.0804 26.872 87.2404 26.168 87.2404 25.352ZM93.042 25.352C93.042 23.976 93.322 22.776 93.882 21.752C94.442 20.712 95.218 19.912 96.21 19.352C97.202 18.776 98.338 18.488 99.618 18.488C101.266 18.488 102.626 18.904 103.698 19.736C104.786 20.552 105.514 21.704 105.882 23.192H102.258C102.066 22.616 101.738 22.168 101.274 21.848C100.826 21.512 100.266 21.344 99.594 21.344C98.634 21.344 97.874 21.696 97.314 22.4C96.754 23.088 96.474 24.072 96.474 25.352C96.474 26.616 96.754 27.6 97.314 28.304C97.874 28.992 98.634 29.336 99.594 29.336C100.954 29.336 101.842 28.728 102.258 27.512H105.882C105.514 28.952 104.786 30.096 103.698 30.944C102.61 31.792 101.25 32.216 99.618 32.216C98.338 32.216 97.202 31.936 96.21 31.376C95.218 30.8 94.442 30 93.882 28.976C93.322 27.936 93.042 26.728 93.042 25.352ZM116.216 32L111.704 26.336V32H108.344V14.24H111.704V24.344L116.168 18.704H120.536L114.68 25.376L120.584 32H116.216ZM140.791 18.704L136.903 32H133.279L130.855 22.712L128.431 32H124.783L120.871 18.704H124.279L126.631 28.832L129.175 18.704H132.727L135.223 28.808L137.575 18.704H140.791ZM155.329 18.704L147.097 38.288H143.521L146.401 31.664L141.073 18.704H144.841L148.273 27.992L151.753 18.704H155.329ZM162.228 32.216C161.14 32.216 160.164 32.024 159.3 31.64C158.436 31.24 157.748 30.704 157.236 30.032C156.74 29.36 156.468 28.616 156.42 27.8H159.804C159.868 28.312 160.116 28.736 160.548 29.072C160.996 29.408 161.548 29.576 162.204 29.576C162.844 29.576 163.34 29.448 163.692 29.192C164.06 28.936 164.244 28.608 164.244 28.208C164.244 27.776 164.02 27.456 163.572 27.248C163.14 27.024 162.444 26.784 161.484 26.528C160.492 26.288 159.676 26.04 159.036 25.784C158.412 25.528 157.868 25.136 157.404 24.608C156.956 24.08 156.732 23.368 156.732 22.472C156.732 21.736 156.94 21.064 157.356 20.456C157.788 19.848 158.396 19.368 159.18 19.016C159.98 18.664 160.916 18.488 161.988 18.488C163.572 18.488 164.836 18.888 165.78 19.688C166.724 20.472 167.244 21.536 167.34 22.88H164.124C164.076 22.352 163.852 21.936 163.452 21.632C163.068 21.312 162.548 21.152 161.892 21.152C161.284 21.152 160.812 21.264 160.476 21.488C160.156 21.712 159.996 22.024 159.996 22.424C159.996 22.872 160.22 23.216 160.668 23.456C161.116 23.68 161.812 23.912 162.756 24.152C163.716 24.392 164.508 24.64 165.132 24.896C165.756 25.152 166.292 25.552 166.74 26.096C167.204 26.624 167.444 27.328 167.46 28.208C167.46 28.976 167.244 29.664 166.812 30.272C166.396 30.88 165.788 31.36 164.988 31.712C164.204 32.048 163.284 32.216 162.228 32.216ZM182.579 25.064C182.579 25.544 182.547 25.976 182.483 26.36H172.763C172.843 27.32 173.179 28.072 173.771 28.616C174.363 29.16 175.091 29.432 175.955 29.432C177.203 29.432 178.091 28.896 178.619 27.824H182.243C181.859 29.104 181.123 30.16 180.035 30.992C178.947 31.808 177.611 32.216 176.027 32.216C174.747 32.216 173.595 31.936 172.571 31.376C171.563 30.8 170.771 29.992 170.195 28.952C169.635 27.912 169.354 26.712 169.354 25.352C169.354 23.976 169.635 22.768 170.195 21.728C170.755 20.688 171.539 19.888 172.547 19.328C173.555 18.768 174.715 18.488 176.027 18.488C177.291 18.488 178.419 18.76 179.411 19.304C180.419 19.848 181.195 20.624 181.739 21.632C182.299 22.624 182.579 23.768 182.579 25.064ZM179.099 24.104C179.083 23.24 178.771 22.552 178.163 22.04C177.555 21.512 176.811 21.248 175.931 21.248C175.099 21.248 174.395 21.504 173.819 22.016C173.259 22.512 172.915 23.208 172.787 24.104H179.099Z" fill="#111215"/>
<defs>
<filter id="filter0_d_927_620" x="14.9297" y="10.5" width="18.0376" height="27.9316" filterUnits="userSpaceOnUse" color-interpolation-filters="sRGB">
<feFlood flood-opacity="0" result="BackgroundImageFix"/>
<feColorMatrix in="SourceAlpha" type="matrix" values="0 0 0 0 0 0 0 0 0 0 0 0 0 0 0 0 0 0 127 0" result="hardAlpha"/>
<feOffset dy="0.1875"/>
<feGaussianBlur stdDeviation="0.09375"/>
<feComposite in2="hardAlpha" operator="out"/>
<feColorMatrix type="matrix" values="0 0 0 0 0 0 0 0 0 0 0 0 0 0 0 0 0 0 0.25 0"/>
<feBlend mode="normal" in2="BackgroundImageFix" result="effect1_dropShadow_927_620"/>
<feBlend mode="normal" in="SourceGraphic" in2="effect1_dropShadow_927_620" result="shape"/>
</filter>
<radialGradient id="paint0_radial_927_620" cx="0" cy="0" r="1" gradientUnits="userSpaceOnUse" gradientTransform="translate(24.0234 24) rotate(90) scale(24)">
<stop offset="0.0001" stop-color="#383838"/>
<stop offset="1" stop-color="#111215"/>
</radialGradient>
</defs>
</svg>
